<?xml version="1.0" standalone="no"?>
<!DOCTYPE svg PUBLIC "-//W3C//DTD SVG 20010904//EN"
 "http://www.w3.org/TR/2001/REC-SVG-20010904/DTD/svg10.dtd">
<svg version="1.0" xmlns="http://www.w3.org/2000/svg"
 width="225.000000pt" height="225.000000pt" viewBox="0 0 225.000000 225.000000"
 preserveAspectRatio="xMidYMid meet">

<g transform="translate(0.000000,225.000000) scale(0.100000,-0.100000)"
fill="#000000" stroke="none">
<path d="M733 1823 l-383 -237 0 -487 0 -487 381 -236 c210 -130 390 -236 400
-236 18 0 114 57 572 342 l207 129 0 487 0 487 -258 159 c-141 87 -314 194
-384 237 -70 44 -133 79 -140 79 -7 0 -185 -107 -395 -237z m377 66 c0 -93 -3
-119 -12 -113 -7 4 -53 32 -101 62 l-89 55 49 29 c26 17 68 43 93 59 25 16 48
29 53 29 4 0 7 -54 7 -121z m143 58 c64 -40 84 -57 75 -64 -20 -16 -177 -113
-183 -113 -3 0 -5 54 -5 121 0 93 3 120 13 116 6 -2 51 -29 100 -60z m-403
-218 l0 -121 -32 21 c-18 12 -61 38 -95 59 -35 20 -62 41 -60 45 3 9 167 115
180 116 4 1 7 -53 7 -120z m140 64 c50 -31 90 -59 90 -62 0 -4 -26 -22 -57
-41 -32 -19 -75 -45 -95 -58 l-38 -23 0 120 c0 67 2 121 5 121 3 0 46 -26 95
-57z m370 -63 l0 -120 -95 58 c-52 31 -93 60 -92 64 2 6 176 118 185 118 1 0
2 -54 2 -120z m140 64 c49 -31 90 -59 90 -63 0 -3 -33 -26 -72 -51 -40 -24
-83 -50 -95 -58 l-23 -14 0 121 c0 66 2 121 5 121 3 0 45 -25 95 -56z m-395
-332 c-4 -5 -84 41 -163 93 l-33 22 98 61 98 60 3 -115 c1 -64 0 -118 -3 -121z
m-505 113 c0 -67 -4 -115 -10 -115 -8 0 -163 93 -183 111 -8 6 168 119 186
119 4 0 7 -52 7 -115z m136 59 c49 -31 90 -57 92 -59 5 -4 -176 -115 -188
-115 -6 0 -10 44 -10 115 0 63 4 115 8 115 4 0 48 -25 98 -56z m517 -4 c102
-60 103 -51 -20 -128 l-83 -52 0 121 c0 66 3 118 8 116 4 -2 47 -28 95 -57z
m367 -56 c0 -105 -2 -116 -17 -110 -25 10 -182 110 -179 114 14 13 174 110
184 111 9 1 12 -28 12 -115z m132 64 c46 -28 87 -55 91 -59 9 -7 -164 -119
-183 -119 -6 0 -10 44 -10 115 0 67 4 115 10 115 5 0 47 -23 92 -52z m-906
-335 c-2 -2 -45 21 -96 52 -65 41 -89 60 -81 68 6 6 48 34 93 62 l83 52 3
-115 c1 -63 1 -117 -2 -119z m510 -1 c-3 -2 -46 21 -96 53 -64 41 -88 61 -81
68 6 6 48 34 93 62 l83 52 3 -115 c1 -63 0 -117 -2 -120z m510 1 c-2 -2 -45
21 -96 53 -51 32 -87 61 -83 65 5 5 47 33 94 62 l84 53 3 -114 c1 -63 1 -117
-2 -119z m-1386 173 c47 -29 84 -57 84 -62 -1 -9 -163 -113 -176 -114 -5 0 -8
52 -8 115 0 63 3 115 8 115 4 -1 45 -25 92 -54z m509 1 c46 -29 84 -57 84 -62
0 -10 -160 -114 -175 -115 -5 0 -8 52 -8 115 0 63 3 115 8 115 4 0 45 -24 91
-53z m510 0 c46 -29 84 -57 84 -62 0 -9 -161 -115 -175 -115 -5 0 -8 52 -8
115 0 63 3 115 8 115 4 0 45 -24 91 -53z m-899 -218 c0 -93 -3 -120 -12 -116
-7 2 -53 30 -102 60 l-88 56 58 37 c33 20 75 47 94 60 19 12 38 23 43 23 4 1
7 -53 7 -120z m1243 2 c7 -7 -166 -121 -184 -121 -10 0 -13 223 -3 233 5 5
162 -90 187 -112z m-1102 53 c50 -31 89 -57 87 -59 -12 -11 -184 -115 -190
-115 -4 0 -8 52 -8 115 0 71 4 115 10 115 6 0 51 -25 101 -56z m369 -59 c0
-63 -3 -115 -6 -115 -16 0 -194 114 -187 120 20 19 169 110 181 110 9 0 12
-30 12 -115z m142 59 c79 -50 87 -58 71 -68 -49 -34 -170 -106 -176 -106 -4 0
-7 52 -7 115 0 80 4 115 11 115 7 0 52 -25 101 -56z m368 -59 c0 -63 -3 -115
-6 -115 -5 0 -138 79 -182 108 -10 7 11 25 75 65 48 31 94 57 101 57 9 0 12
-30 12 -115z m-1113 -113 c35 -20 63 -40 63 -44 0 -5 -177 -118 -186 -118 -2
0 -4 54 -4 121 l0 121 33 -21 c17 -12 60 -38 94 -59z m341 -101 l-3 -60 -92
57 c-51 31 -93 59 -93 62 0 3 42 31 93 63 l92 57 3 -60 c2 -33 2 -87 0 -119z
m169 101 c35 -20 63 -40 63 -43 0 -7 -175 -119 -185 -119 -3 0 -5 54 -5 121
l0 121 33 -21 c17 -12 60 -38 94 -59z m341 -102 l-3 -60 -92 56 c-51 30 -93
58 -93 62 0 4 42 32 93 63 l92 56 3 -59 c2 -32 2 -85 0 -118z m145 120 c48
-30 87 -58 87 -62 0 -5 -177 -118 -186 -118 -2 0 -4 54 -4 121 0 66 4 119 8
117 4 -1 47 -28 95 -58z m365 -119 l-3 -60 -92 57 c-51 31 -93 59 -93 62 0 3
42 30 93 61 l92 57 3 -59 c2 -32 2 -86 0 -118z m-1268 -101 c0 -66 -2 -120 -5
-120 -6 0 -167 101 -182 114 -9 8 11 25 80 68 51 31 95 57 100 58 4 0 7 -54 7
-120z m136 63 c70 -44 90 -61 81 -69 -15 -13 -176 -114 -182 -114 -3 0 -5 54
-5 120 0 66 3 120 6 120 4 0 49 -26 100 -57z m374 -63 c0 -66 -2 -120 -4 -120
-3 0 -48 28 -100 61 l-96 61 92 59 c51 32 96 59 101 59 4 0 7 -54 7 -120z
m158 50 c39 -25 72 -47 72 -50 0 -3 -28 -22 -63 -42 -34 -21 -77 -47 -94 -59
l-33 -21 0 122 0 122 23 -14 c12 -8 55 -34 95 -58z m352 -50 c0 -66 -2 -120
-5 -120 -2 0 -48 27 -101 59 l-96 60 73 46 c41 26 83 53 94 60 11 8 23 14 28
14 4 1 7 -53 7 -119z m217 6 c9 -8 -9 -24 -80 -68 -50 -31 -95 -54 -99 -52 -9
6 -11 218 -2 226 5 6 156 -82 181 -106z m-1357 -102 c49 -31 90 -59 90 -63 0
-3 -28 -23 -63 -43 -34 -21 -77 -47 -94 -59 l-33 -21 0 121 c0 67 2 121 5 121
3 0 45 -25 95 -56z m370 -64 l0 -120 -82 51 c-117 73 -118 74 -77 98 19 11 59
36 89 55 30 19 58 35 63 35 4 1 7 -53 7 -119z m141 64 c49 -31 89 -59 89 -63
0 -3 -26 -22 -57 -41 -32 -19 -75 -45 -95 -58 l-38 -23 0 120 c0 67 3 121 6
121 4 0 47 -25 95 -56z m369 -65 l0 -121 -32 21 c-18 12 -61 38 -95 59 -35 20
-61 41 -60 45 3 9 167 114 180 116 4 1 7 -53 7 -120z m141 65 c49 -31 89 -59
89 -63 0 -3 -26 -22 -57 -41 -32 -19 -75 -45 -95 -58 l-38 -23 0 120 c0 67 3
121 6 121 4 0 47 -25 95 -56z m369 -59 c0 -63 -3 -115 -7 -115 -13 0 -178 106
-178 114 0 7 164 113 178 115 4 1 7 -51 7 -114z m-1270 -160 c0 -72 -4 -115
-10 -115 -17 0 -181 107 -179 117 2 9 169 113 181 113 5 0 8 -52 8 -115z m136
59 c49 -31 90 -57 92 -59 3 -2 -186 -125 -194 -125 -2 0 -4 54 -4 120 0 66 4
120 8 120 4 0 48 -25 98 -56z m374 -65 c0 -93 -3 -118 -12 -113 -113 69 -174
111 -174 119 0 11 154 113 174 114 9 1 12 -29 12 -120z m140 65 c49 -31 90
-57 90 -59 0 -5 -176 -115 -184 -115 -3 0 -6 52 -6 115 0 63 2 115 5 115 3 0
45 -25 95 -56z m370 -60 c0 -87 -3 -115 -12 -112 -26 6 -177 103 -177 113 0 9
165 114 182 115 4 0 7 -52 7 -116z m137 60 c51 -31 91 -59 89 -63 -7 -11 -174
-111 -185 -111 -7 0 -11 40 -11 115 0 63 3 115 7 115 4 0 49 -25 100 -56z
m-911 -331 c-5 -5 -186 107 -186 116 1 3 42 31 93 62 l92 55 3 -114 c1 -63 1
-117 -2 -119z m223 122 c11 -11 6 -18 -30 -41 -24 -15 -68 -42 -96 -60 l-53
-34 0 125 0 125 83 -51 c45 -28 88 -57 96 -64z m287 -122 c-5 -5 -186 107
-186 116 1 3 42 32 93 63 l92 56 3 -115 c1 -64 1 -118 -2 -120z m146 175 c48
-29 86 -57 85 -62 -3 -10 -167 -116 -179 -116 -5 0 -8 52 -8 115 0 63 3 115 7
115 4 0 46 -24 95 -52z m-392 -218 c0 -66 -3 -120 -7 -120 -5 0 -50 27 -101
59 l-92 59 92 60 c51 33 96 61 101 61 4 1 7 -53 7 -119z m217 6 c9 -8 -11 -25
-81 -69 -51 -31 -96 -57 -100 -57 -8 0 -8 225 0 233 5 5 153 -82 181 -107z"/>
</g>
</svg>
